<svg width="155" height="20" viewBox="0 0 155 20" fill="none" xmlns="http://www.w3.org/2000/svg">
<path d="M118.954 19.6128C118.512 19.6865 118.051 19.7419 117.571 19.7787C117.092 19.8341 116.566 19.8617 115.994 19.8617C115.46 19.8617 114.952 19.788 114.473 19.6404C114.012 19.4929 113.606 19.2624 113.256 18.9489C112.905 18.6354 112.62 18.2296 112.398 17.7317C112.195 17.2153 112.094 16.6068 112.094 15.906V9.23932H110.13V5.94748H112.094V2.15771H116.409V5.94748H118.954V9.23932H116.409V14.3016C116.409 14.8548 116.483 15.2974 116.631 15.6294C116.797 15.9613 117.184 16.1273 117.792 16.1273H118.954V19.6128Z" fill="#007ED3"/>
<path d="M105.972 0C106.322 0 106.645 0.0645458 106.94 0.193638C107.254 0.322729 107.521 0.507146 107.742 0.746888C107.982 0.968188 108.167 1.23559 108.296 1.5491C108.443 1.86261 108.517 2.19456 108.517 2.54495C108.517 3.24574 108.268 3.83587 107.77 4.31535C107.291 4.7764 106.7 5.00692 106 5.00692C105.317 5.00692 104.727 4.7764 104.229 4.31535C103.731 3.83587 103.482 3.24574 103.482 2.54495C103.482 1.82573 103.722 1.22637 104.202 0.746888C104.7 0.248962 105.29 0 105.972 0ZM103.814 5.94744H108.13V19.7787H103.814V5.94744Z" fill="#007ED3"/>
<path d="M95.6102 11.8673V19.7788H91.1289V0.415039H101.613V4.23247H95.6102V8.0499H101.253V11.8673H95.6102Z" fill="#007ED3"/>
<path d="M79.7383 10.6777H87.6221V14.2185H79.7383V10.6777Z" fill="#007ED3"/>
<path d="M72.4229 0.415039H76.7382V19.7788H72.4229V0.415039Z" fill="#007ED3"/>
<path d="M62.8228 5.61548C63.9108 5.61548 64.8975 5.78145 65.7827 6.1134C66.6679 6.42691 67.4148 6.88795 68.0233 7.49653C68.6503 8.10511 69.1298 8.84277 69.4618 9.70953C69.8122 10.5763 69.9874 11.5629 69.9874 12.6694V13.9142H59.9182C59.992 14.6703 60.2963 15.3158 60.8311 15.8506C61.3659 16.3854 62.1035 16.6528 63.0441 16.6528C63.7449 16.6528 64.3165 16.4868 64.7592 16.1549C65.2018 15.8229 65.4968 15.4818 65.6444 15.1314H69.8491C69.7015 15.7768 69.4341 16.3946 69.0468 16.9848C68.678 17.5749 68.1893 18.0913 67.5807 18.5339C66.9906 18.9765 66.299 19.3361 65.506 19.6127C64.7131 19.8709 63.8186 20 62.8228 20C61.6978 20 60.6835 19.8248 59.7799 19.4744C58.8947 19.1056 58.1386 18.6076 57.5116 17.9806C56.8846 17.3352 56.4051 16.5698 56.0731 15.6846C55.7412 14.7994 55.5752 13.8405 55.5752 12.8077C55.5752 11.7566 55.7412 10.7976 56.0731 9.93083C56.4051 9.04563 56.8846 8.28952 57.5116 7.66251C58.1386 7.01705 58.8947 6.51912 59.7799 6.16873C60.6835 5.7999 61.6978 5.61548 62.8228 5.61548ZM62.8228 8.85199C61.9929 8.85199 61.3659 9.08251 60.9417 9.54356C60.5176 10.0046 60.2409 10.5578 60.1118 11.2033H65.5614C65.506 10.521 65.2294 9.95849 64.7315 9.51589C64.252 9.07329 63.6158 8.85199 62.8228 8.85199Z" fill="#007ED3"/>
<path d="M54.694 5.94751L50.1573 19.7788H44.5142L39.9775 5.94751H44.4035L47.3358 16.0167L50.2403 5.94751H54.694Z" fill="#007ED3"/>
<path d="M35.0466 19.7787L34.6317 18.5615C34.1338 18.9304 33.5344 19.2623 32.8336 19.5574C32.1328 19.8525 31.3952 20 30.6206 20C29.4957 20 28.4814 19.8156 27.5778 19.4467C26.6926 19.0779 25.9364 18.5708 25.3094 17.9253C24.6824 17.2614 24.2029 16.4961 23.871 15.6293C23.539 14.7441 23.373 13.8036 23.373 12.8077C23.373 11.8119 23.539 10.8806 23.871 10.0138C24.2029 9.12862 24.6824 8.36329 25.3094 7.71783C25.9364 7.05393 26.6926 6.53756 27.5778 6.16873C28.4814 5.7999 29.4957 5.61548 30.6206 5.61548C31.4321 5.61548 32.1882 5.76301 32.889 6.05808C33.5897 6.3347 34.1799 6.66665 34.6594 7.05393L35.0743 5.94743H38.5044V19.7787H35.0466ZM27.7991 12.8077C27.7991 13.3425 27.8728 13.8405 28.0204 14.3015C28.1863 14.7441 28.4076 15.1314 28.6843 15.4633C28.9793 15.7768 29.3205 16.0258 29.7078 16.2102C30.1135 16.3946 30.5469 16.4868 31.0079 16.4868C31.9669 16.4868 32.7414 16.1457 33.3316 15.4633C33.9401 14.7626 34.2444 13.8774 34.2444 12.8077C34.2444 12.2729 34.1614 11.7842 33.9955 11.3416C33.8479 10.8806 33.6266 10.4933 33.3316 10.1798C33.0549 9.84784 32.7138 9.58966 32.308 9.40524C31.9208 9.22083 31.4966 9.12862 31.0356 9.12862C30.1135 9.12862 29.3389 9.46979 28.7119 10.1521C28.1033 10.8345 27.7991 11.7197 27.7991 12.8077Z" fill="#007ED3"/>
<path d="M22.5357 5.75372V9.46049H21.1802C20.3135 9.46049 19.6311 9.70946 19.1332 10.2074C18.6537 10.7053 18.414 11.443 18.414 12.4204V19.7786H14.0986V5.94735H17.5288L18.1374 7.19217C18.1927 7.08152 18.3033 6.94321 18.4693 6.77723C18.6353 6.59281 18.8474 6.41762 19.1055 6.25164C19.3637 6.08567 19.6588 5.94735 19.9908 5.8367C20.3411 5.70761 20.7376 5.64307 21.1802 5.64307C21.4384 5.64307 21.7058 5.65229 21.9825 5.67073C22.2591 5.68917 22.4435 5.71683 22.5357 5.75372Z" fill="#007ED3"/>
<path d="M0 4.23247V0.415039H13.0567V4.23247H8.76902V19.7788H4.28769V4.23247H0Z" fill="#007ED3"/>
<path d="M154.305 19.6819H149.823V0.318115H154.305V19.6819Z" fill="url(#paint0_linear_25_4608)"/>
<path d="M142.947 19.6819L141.591 15.6155H133.901L132.573 19.6819H128.175L134.869 0.318115H140.623L147.317 19.6819H142.947ZM137.746 3.99723L135.173 11.7981H140.346L137.746 3.99723Z" fill="url(#paint1_linear_25_4608)"/>
<defs>
<linearGradient id="paint0_linear_25_4608" x1="149.613" y1="0.318115" x2="159.848" y2="2.48808" gradientUnits="userSpaceOnUse">
<stop offset="0.144231" stop-color="#00A5B8"/>
<stop offset="1" stop-color="#4E4BEA"/>
</linearGradient>
<linearGradient id="paint1_linear_25_4608" x1="127.278" y1="0.318115" x2="152.378" y2="23.0491" gradientUnits="userSpaceOnUse">
<stop offset="0.144231" stop-color="#00A5B8"/>
<stop offset="1" stop-color="#4E4BEA"/>
</linearGradient>
</defs>
</svg>
