<svg width="40" height="42" viewBox="0 0 40 42" fill="none" xmlns="http://www.w3.org/2000/svg">
<path d="M36 30H40V34H0V30H4V16C4 13.0933 4.73333 10.4 6.2 7.92C7.61333 5.52 9.52 3.61333 11.92 2.2C14.4 0.733334 17.0933 0 20 0C22.9067 0 25.6 0.733334 28.08 2.2C30.48 3.61333 32.3867 5.52 33.8 7.92C35.2667 10.4 36 13.0933 36 16V30ZM32 30V16C32 13.84 31.4533 11.8267 30.36 9.96C29.2933 8.14667 27.8533 6.70667 26.04 5.64C24.1733 4.54667 22.16 4 20 4C17.84 4 15.8267 4.54667 13.96 5.64C12.1467 6.70667 10.7067 8.14667 9.64 9.96C8.54667 11.8267 8 13.84 8 16V30H32ZM14 38H26V42H14V38Z" fill="#007ED3"/>
</svg>
