<svg width="19" height="18" viewBox="0 0 19 18" fill="none" xmlns="http://www.w3.org/2000/svg">
<path d="M11.7095 7.39506C11.3792 7.07506 11.184 6.68506 11.124 6.22506L10.8237 3.91506L8.76703 5.02506C8.36669 5.24506 7.93634 5.31506 7.47595 5.23506L5.17904 4.80006L5.6144 7.09506C5.69447 7.55506 5.62441 7.98506 5.40423 8.38506L4.2933 10.4401L6.60523 10.7401C7.06561 10.8001 7.45594 10.9951 7.7762 11.3251L9.38254 13.0201L10.3734 10.9201C10.5735 10.5001 10.8838 10.1901 11.3041 9.99006L13.4059 9.00006L11.7095 7.39506ZM11.7395 11.5651L10.0731 15.0451C10.0231 15.1651 9.938 15.2451 9.8179 15.2851C9.6978 15.3251 9.58271 15.3201 9.47261 15.2701C9.42257 15.2401 9.37753 15.2051 9.3375 15.1651L6.68029 12.3601C6.61023 12.2801 6.52016 12.2351 6.41006 12.2251L2.58188 11.7301C2.46178 11.7101 2.36169 11.6501 2.28163 11.5501C2.20156 11.4501 2.17154 11.3401 2.19155 11.2201C2.20156 11.1601 2.21657 11.1101 2.23659 11.0701L4.08313 7.66506C4.14318 7.57506 4.16319 7.48006 4.14318 7.38006L3.42258 3.57006C3.40256 3.45006 3.42758 3.34006 3.49764 3.24006C3.5677 3.14006 3.66278 3.07506 3.78288 3.04506C3.84293 3.03506 3.89797 3.03506 3.94801 3.04506L7.76119 3.76506C7.86127 3.78506 7.95635 3.76506 8.04643 3.70506L11.4543 1.86006C11.5543 1.80006 11.6644 1.78756 11.7845 1.82256C11.9046 1.85756 11.9947 1.93006 12.0548 2.04006C12.0848 2.09006 12.1048 2.14506 12.1148 2.20506L12.6102 6.03006C12.6202 6.14006 12.6653 6.23006 12.7453 6.30006L15.5527 8.95506C15.6428 9.04506 15.6903 9.15006 15.6953 9.27006C15.7003 9.39006 15.6578 9.50006 15.5677 9.60006C15.5277 9.64006 15.4826 9.67006 15.4326 9.69006L11.9497 11.3551C11.8496 11.3951 11.7795 11.4651 11.7395 11.5651ZM12.325 13.0051L13.3909 11.9401L16.5735 15.1351L15.5227 16.1851L12.325 13.0051Z" fill="white"/>
</svg>
